<svg xmlns="http://www.w3.org/2000/svg" width="21" height="21" viewBox="0 0 21 21" fill="none">
    <path d="M7.47285 2.45706C9.15337 1.82456 10.9898 1.73434 12.7242 2.19908C13.141 2.31075 13.5694 2.06342 13.6811 1.64665C13.7927 1.22988 13.5454 0.801491 13.1286 0.689817C11.0789 0.140582 8.90853 0.247204 6.92246 0.994707C4.93639 1.74221 3.23435 3.09305 2.05539 4.85749C0.876423 6.62194 0.279757 8.71136 0.34919 10.8323C0.418623 12.9533 1.15067 14.9992 2.44251 16.6827C3.73435 18.3663 5.52109 19.6029 7.5518 20.2189C9.5825 20.8349 11.7552 20.7994 13.7646 20.1173C15.7741 19.4351 17.5194 18.1407 18.7555 16.4158C19.9915 14.6909 20.6563 12.6221 20.6563 10.5C20.6563 10.0685 20.3065 9.71875 19.875 9.71875C19.4435 9.71875 19.0938 10.0685 19.0938 10.5C19.0938 12.2956 18.5313 14.0461 17.4854 15.5057C16.4395 16.9652 14.9627 18.0605 13.2624 18.6377C11.5621 19.2149 9.72366 19.2449 8.00537 18.7237C6.28708 18.2025 4.77522 17.1561 3.68212 15.7315C2.58903 14.307 1.9696 12.5758 1.91085 10.7812C1.8521 8.98654 2.35697 7.21856 3.35456 5.72557C4.35215 4.23258 5.79233 3.08956 7.47285 2.45706Z" fill="black"/>
    <path d="M18.9268 3.95143C19.1934 3.61215 19.1344 3.12101 18.7952 2.85444C18.4559 2.58787 17.9648 2.6468 17.6982 2.98608L9.6485 13.2311L6.36493 9.94758C6.05983 9.64248 5.56517 9.64248 5.26007 9.94758C4.95498 10.2527 4.95498 10.7473 5.26007 11.0524L9.16632 14.9587C9.3243 15.1167 9.54236 15.1994 9.76538 15.1861C9.98839 15.1728 10.195 15.0646 10.3331 14.8889L18.9268 3.95143Z" fill="black"/>
</svg>