<svg width="838" height="296" viewBox="0 0 838 296" fill="none" xmlns="http://www.w3.org/2000/svg">
<path d="M361.176 207.041C347.681 204.456 337.23 228.776 335 237H780C774.959 232.007 768.948 215.559 750.043 215.559C733.888 215.559 731.137 199.404 717.176 199.404C703.216 199.404 704.961 219.083 703.797 202.929C702.634 186.774 675.164 151.713 631.376 150.055C584.84 148.293 587.167 189.408 577.859 184.126C564.018 176.271 547.902 183.397 545.866 184.126C527.833 190.588 533.941 199.404 526.088 202.929C522.102 204.718 506.02 196.781 495.258 199.404C478.389 203.516 478.971 216.733 459.775 199.404C438.796 180.466 412.948 183.25 398.114 199.404C383.281 215.559 383.281 211.274 361.176 207.041Z" fill="#EFEFF4"/>
<path d="M95.1254 117.451C77.4747 112.561 70.7395 138.701 48.9664 132.588L24 144.814C115.931 146.464 297.992 148.773 290.793 144.814C281.793 139.866 264.084 137.246 258.278 128.222C252.472 119.198 239.989 111.047 219.087 113.085C198.185 115.123 186.572 96.4929 168.283 87.469C149.993 78.4452 138.381 84.267 126.479 94.4552C121.106 99.0537 117.189 123.564 95.1254 117.451Z" fill="#EFEFF4"/>
<path d="M197.963 163.159H208.087L205.556 170.086H200.494L197.963 163.159Z" fill="black"/>
<path d="M199.295 164.491C199.295 162.716 201.279 160.358 203.025 160.229C205.734 160.028 206.755 162.381 206.755 164.225" stroke="black" stroke-linecap="round"/>
<path d="M199.029 163.692C198.854 162.214 197.386 160.328 196.675 159.039C194.596 155.27 192.565 151.482 190.503 147.707" stroke="black" stroke-linecap="round"/>
<path d="M201.16 161.028C201.16 160.042 200.48 159.005 200.118 158.068C199.118 155.482 198.202 152.901 196.897 150.371" stroke="black" stroke-linecap="round"/>
<path d="M203.292 151.97V159.872" stroke="black" stroke-linecap="round"/>
<path d="M205.423 160.495C206.617 157.041 207.535 153.369 208.62 149.838" stroke="black" stroke-linecap="round"/>
<path d="M206.489 164.225C209.597 159.405 211.873 154.126 215.014 149.305" stroke="black" stroke-linecap="round"/>
<path d="M248.05 86.0853C248.05 110.93 227.892 153.469 203.025 153.469C178.158 153.469 158 110.93 158 86.0853C158 61.2402 178.158 47 203.025 47C227.892 47 248.05 61.2402 248.05 86.0853Z" fill="black"/>
<path fill-rule="evenodd" clip-rule="evenodd" d="M215.886 149.697C234.486 138.751 248.05 106.465 248.05 86.0853C248.05 61.2402 227.892 47 203.025 47C178.158 47 158 61.2402 158 86.0853C158 106.465 171.564 138.751 190.164 149.697C194.239 148.798 198.556 148.338 203.025 148.338C207.494 148.338 211.811 148.798 215.886 149.697Z" fill="#FE5C00"/>
<path d="M401.963 248.159H412.087L409.556 255.086H404.494L401.963 248.159Z" fill="black"/>
<path d="M403.295 249.491C403.295 247.716 405.279 245.358 407.025 245.229C409.734 245.028 410.755 247.381 410.755 249.225" stroke="black" stroke-linecap="round"/>
<path d="M403.029 248.692C402.854 247.214 401.386 245.328 400.675 244.039C398.596 240.27 396.565 236.482 394.503 232.707" stroke="black" stroke-linecap="round"/>
<path d="M405.16 246.028C405.16 245.042 404.481 244.005 404.118 243.068C403.118 240.482 402.202 237.901 400.897 235.371" stroke="black" stroke-linecap="round"/>
<path d="M407.292 236.97V244.872" stroke="black" stroke-linecap="round"/>
<path d="M409.423 245.495C410.617 242.041 411.535 238.369 412.62 234.838" stroke="black" stroke-linecap="round"/>
<path d="M410.489 249.225C413.597 244.405 415.873 239.126 419.014 234.305" stroke="black" stroke-linecap="round"/>
<path d="M452.05 171.085C452.05 195.93 431.892 238.469 407.025 238.469C382.158 238.469 362 195.93 362 171.085C362 146.24 382.158 132 407.025 132C431.892 132 452.05 146.24 452.05 171.085Z" fill="black"/>
<path fill-rule="evenodd" clip-rule="evenodd" d="M419.886 234.697C438.486 223.751 452.05 191.465 452.05 171.085C452.05 146.24 431.892 132 407.025 132C382.158 132 362 146.24 362 171.085C362 191.465 375.564 223.751 394.164 234.697C398.239 233.798 402.556 233.338 407.025 233.338C411.494 233.338 415.811 233.798 419.886 234.697Z" fill="#FF9408"/>
<path d="M610.963 169.159H621.087L618.556 176.086H613.494L610.963 169.159Z" fill="black"/>
<path d="M612.295 170.491C612.295 168.716 614.279 166.358 616.025 166.229C618.734 166.028 619.755 168.381 619.755 170.225" stroke="black" stroke-linecap="round"/>
<path d="M612.029 169.692C611.854 168.214 610.386 166.328 609.675 165.039C607.596 161.27 605.565 157.482 603.503 153.707" stroke="black" stroke-linecap="round"/>
<path d="M614.16 167.028C614.16 166.042 613.481 165.005 613.118 164.068C612.118 161.482 611.202 158.901 609.897 156.371" stroke="black" stroke-linecap="round"/>
<path d="M616.292 157.97V165.872" stroke="black" stroke-linecap="round"/>
<path d="M618.423 166.495C619.617 163.041 620.535 159.369 621.62 155.838" stroke="black" stroke-linecap="round"/>
<path d="M619.489 170.225C622.597 165.405 624.873 160.126 628.014 155.305" stroke="black" stroke-linecap="round"/>
<path d="M661.05 92.0853C661.05 116.93 640.892 159.469 616.025 159.469C591.158 159.469 571 116.93 571 92.0853C571 67.2402 591.158 53 616.025 53C640.892 53 661.05 67.2402 661.05 92.0853Z" fill="black"/>
<path fill-rule="evenodd" clip-rule="evenodd" d="M628.886 155.697C647.486 144.751 661.05 112.465 661.05 92.0853C661.05 67.2402 640.892 53 616.025 53C591.158 53 571 67.2402 571 92.0853C571 112.465 584.564 144.751 603.164 155.697C607.239 154.798 611.556 154.338 616.025 154.338C620.494 154.338 624.811 154.798 628.886 155.697Z" fill="#00A7FF"/>
<path d="M328.866 17.3138C304.01 17.8094 294.797 48.2201 293.102 54.731C291.407 61.2419 291.103 65.6869 295.827 70.6865C300.551 75.686 307.911 75.771 314.527 69.8298C321.142 63.8885 330.875 43.7442 330.354 49.7982C329.834 55.8521 313.181 110.091 326.318 118.334C339.454 126.578 358.334 124.888 359.804 107.142C361.274 89.3965 360.238 81.7946 359.447 64.5456C358.657 47.2966 359.937 16.6944 328.866 17.3138Z" fill="#EFEFF4"/>
<path d="M262.825 164.566C247.312 159.352 216.413 170.017 218.926 182.308C221.438 194.599 229.129 199.153 243.155 192.482C257.182 185.812 259.63 190.081 257.678 195.758C255.726 201.436 217.887 213.735 203.366 225.363C191.657 234.74 195.843 243.376 202.372 250.449C219.352 264.508 240.159 272.622 250.958 274.412C266.297 276.954 276.959 267.093 272.749 254.497C269.381 244.42 250.658 241.611 237.501 239.696C255.991 233.022 283.008 213.324 284.956 200.715C286.904 188.105 278.338 169.78 262.825 164.566Z" fill="#EFEFF4"/>
<path d="M708.649 52.3062C688.248 60.0373 680.594 70.4012 679.679 79.603C678.764 88.8047 681.276 91.0518 690.674 93.7238C700.072 96.3958 712.641 78.7493 723.902 81.2089C735.162 83.6685 707.363 104.65 711.994 111.443C716.625 118.236 740.387 110.959 746.088 119.322C751.789 127.685 712.8 131.823 713.3 141.672C713.8 151.522 720.797 156.751 735.795 153.889C750.793 151.028 768.952 135.747 768.952 135.747C768.952 135.747 781.648 120.917 775.454 109.356C769.26 97.7958 748.224 94.2938 747.445 90.6455C746.666 86.9973 754.472 70.8206 748.084 61.4504C741.697 52.0802 729.05 44.575 708.649 52.3062Z" fill="#EFEFF4"/>
<path d="M468.295 112.999C458.045 111.639 448.494 123.766 445 130H620C615.729 130 605.324 127.677 597.87 118.383C588.552 106.765 579.235 112.999 569.334 118.383C559.434 123.766 546.04 112.999 537.596 104.215C529.151 95.4309 511.389 97.6977 501.489 100.531C491.589 103.365 481.106 114.699 468.295 112.999Z" fill="#EFEFF4"/>
</svg>
