<svg width="335" height="292" viewBox="0 0 335 292" fill="none" xmlns="http://www.w3.org/2000/svg">
<path d="M0 291.063L44.8503 250.768L52.4152 254.972L76.3856 235L88.9997 245.4L95.6572 242.008L171.692 272.142L192.586 263.031L197.621 265.484L236.165 239.555L243.873 246.563L248.779 244.461L309.849 291.063" fill="#EFEFF4"/>
<path d="M335 291.063L295.351 271.518L283.601 281.291L271.085 271.518H264.611L246.553 258.605L227.064 274.659L221.322 271.169L189.991 281.291L179.159 274.659L150.676 291.063" fill="#9FA4BC"/>
<path d="M52.9092 229.242H56.9395L55.9319 232H53.9168L52.9092 229.242Z" fill="black"/>
<path d="M53.4395 229.773C53.4395 229.066 54.2293 228.127 54.9243 228.076C56.0028 227.996 56.4092 228.933 56.4092 229.667" stroke="black" stroke-width="0.5" stroke-linecap="round"/>
<path d="M53.3334 229.455C53.2637 228.866 52.6795 228.115 52.3965 227.602C51.5689 226.102 50.7603 224.594 49.9395 223.091" stroke="black" stroke-width="0.5" stroke-linecap="round"/>
<path d="M54.1804 228.394C54.1804 228.002 53.9098 227.589 53.7656 227.215C53.3675 226.186 53.0026 225.158 52.4834 224.151" stroke="black" stroke-width="0.5" stroke-linecap="round"/>
<path d="M55.0303 224.788V227.934" stroke="black" stroke-width="0.5" stroke-linecap="round"/>
<path d="M55.8779 228.182C56.3533 226.807 56.7188 225.345 57.1507 223.939" stroke="black" stroke-width="0.5" stroke-linecap="round"/>
<path d="M56.3018 229.667C57.5393 227.748 58.4452 225.646 59.6957 223.727" stroke="black" stroke-width="0.5" stroke-linecap="round"/>
<path d="M72.8485 198.56C72.8485 208.45 64.8235 225.385 54.9242 225.385C45.025 225.385 37 208.45 37 198.56C37 188.669 45.025 183 54.9242 183C64.8235 183 72.8485 188.669 72.8485 198.56Z" fill="black"/>
<path fill-rule="evenodd" clip-rule="evenodd" d="M60.0441 223.883C67.4488 219.526 72.8485 206.673 72.8485 198.56C72.8485 188.669 64.8235 183 54.9242 183C45.025 183 37 188.669 37 198.56C37 206.673 42.3997 219.526 49.8044 223.883C51.4266 223.525 53.1452 223.342 54.9242 223.342C56.7033 223.342 58.4218 223.525 60.0441 223.883Z" fill="#FE5C00"/>
<path d="M289.763 255.378H292.237L291.618 257.071H290.382L289.763 255.378Z" fill="black"/>
<path d="M290.088 255.704C290.088 255.27 290.573 254.694 291 254.662C291.661 254.613 291.911 255.188 291.911 255.639" stroke="black" stroke-width="0.4" stroke-linecap="round"/>
<path d="M290.023 255.509C289.981 255.147 289.622 254.687 289.448 254.372C288.94 253.451 288.444 252.526 287.94 251.603" stroke="black" stroke-width="0.4" stroke-linecap="round"/>
<path d="M290.543 254.858C290.543 254.617 290.377 254.363 290.289 254.134C290.045 253.503 289.821 252.872 289.502 252.254" stroke="black" stroke-width="0.4" stroke-linecap="round"/>
<path d="M291.064 252.645V254.575" stroke="black" stroke-width="0.4" stroke-linecap="round"/>
<path d="M291.585 254.728C291.877 253.884 292.101 252.987 292.366 252.124" stroke="black" stroke-width="0.4" stroke-linecap="round"/>
<path d="M291.845 255.639C292.605 254.461 293.161 253.171 293.928 251.994" stroke="black" stroke-width="0.4" stroke-linecap="round"/>
<path d="M302 236.549C302 242.619 297.075 253.011 291 253.011C284.925 253.011 280 242.619 280 236.549C280 230.479 284.925 227 291 227C297.075 227 302 230.479 302 236.549Z" fill="black"/>
<path fill-rule="evenodd" clip-rule="evenodd" d="M294.142 252.09C298.686 249.415 302 241.528 302 236.549C302 230.479 297.075 227 291 227C284.925 227 280 230.479 280 236.549C280 241.528 283.314 249.415 287.858 252.089C288.854 251.87 289.908 251.758 291 251.758C292.092 251.758 293.147 251.87 294.142 252.09Z" fill="#FF9408"/>
<path d="M199.286 186.857H215.571L211.5 198H203.357L199.286 186.857Z" fill="black"/>
<path d="M201.429 189C201.429 186.144 204.62 182.351 207.429 182.143C211.787 181.82 213.429 185.605 213.429 188.571" stroke="black" stroke-width="2" stroke-linecap="round"/>
<path d="M201 187.714C200.719 185.336 198.358 182.303 197.214 180.229C193.87 174.166 190.602 168.073 187.286 162" stroke="black" stroke-width="2" stroke-linecap="round"/>
<path d="M204.428 183.429C204.428 181.843 203.335 180.174 202.752 178.667C201.144 174.507 199.669 170.355 197.571 166.286" stroke="black" stroke-width="2" stroke-linecap="round"/>
<path d="M207.857 168.857V181.569" stroke="black" stroke-width="2" stroke-linecap="round"/>
<path d="M211.286 182.571C213.206 177.014 214.684 171.108 216.429 165.429" stroke="black" stroke-width="2" stroke-linecap="round"/>
<path d="M213 188.571C218.001 180.817 221.661 172.326 226.714 164.571" stroke="black" stroke-width="2" stroke-linecap="round"/>
<path d="M279.857 62.8737C279.857 102.84 247.43 171.27 207.429 171.27C167.427 171.27 135 102.84 135 62.8737C135 22.9072 167.427 0 207.429 0C247.43 0 279.857 22.9072 279.857 62.8737Z" fill="black"/>
<path fill-rule="evenodd" clip-rule="evenodd" d="M228.118 165.201C258.038 147.593 279.857 95.6574 279.857 62.8737C279.857 22.9072 247.43 0 207.429 0C167.427 0 135 22.9072 135 62.8737C135 95.6574 156.819 147.593 186.74 165.201C193.295 163.756 200.24 163.016 207.429 163.016C214.618 163.016 221.562 163.756 228.118 165.201Z" fill="#00A7FF"/>
<path d="M49.2816 124.685C37.0517 121.323 32.3851 139.295 17.2988 135.092L0 143.497C63.6973 144.631 189.845 146.219 184.856 143.497C178.621 140.095 166.351 138.294 162.328 132.09C158.305 125.886 149.655 120.283 135.172 121.683C120.69 123.084 112.644 110.276 99.9713 104.072C87.2988 97.8686 79.2529 101.871 71.0057 108.875C67.2834 112.037 64.569 128.888 49.2816 124.685Z" fill="#EFEFF4"/>
<path d="M250.912 202.437C245.231 201.672 239.937 208.494 238 212H335C332.633 212 326.866 210.693 322.734 205.465C317.569 198.93 312.404 202.437 306.917 205.465C301.429 208.493 294.005 202.437 289.324 197.496C284.644 192.555 274.799 193.83 269.311 195.424C263.824 197.018 258.013 203.393 250.912 202.437Z" fill="#EFEFF4"/>
</svg>
