<svg width="1125" height="329" viewBox="0 0 1125 329" fill="none" xmlns="http://www.w3.org/2000/svg">
<path d="M0 329L150.617 193.68L176.021 207.801L256.519 140.729L298.88 175.654L321.237 164.263L576.579 265.459L646.745 234.865L663.654 243.101L793.09 156.026L818.977 179.56L835.451 172.5L1040.54 329" fill="#EFEFF4"/>
<path d="M1125 329L991.852 263.366L952.391 296.183L910.361 263.366H888.62L827.977 220L762.529 273.914L743.246 262.194L638.031 296.183L601.653 273.914L506 329" fill="#9FA4BC"/>
<path d="M325.379 247.994H336.621L333.811 255.686H328.189L325.379 247.994Z" fill="black"/>
<path d="M326.858 249.473C326.858 247.502 329.061 244.883 331 244.74C334.008 244.517 335.142 247.129 335.142 249.178" stroke="black" stroke-width="1.5" stroke-linecap="round"/>
<path d="M326.562 248.586C326.368 246.944 324.738 244.85 323.949 243.419C321.64 239.233 319.384 235.027 317.095 230.834" stroke="black" stroke-width="1.5" stroke-linecap="round"/>
<path d="M328.929 245.627C328.929 244.533 328.174 243.381 327.772 242.34C326.661 239.468 325.643 236.602 324.195 233.793" stroke="black" stroke-width="1.5" stroke-linecap="round"/>
<path d="M331.296 235.568V244.343" stroke="black" stroke-width="1.5" stroke-linecap="round"/>
<path d="M333.663 245.036C334.989 241.199 336.008 237.122 337.213 233.201" stroke="black" stroke-width="1.5" stroke-linecap="round"/>
<path d="M334.846 249.178C338.298 243.825 340.825 237.962 344.314 232.609" stroke="black" stroke-width="1.5" stroke-linecap="round"/>
<path d="M381 162.404C381 189.994 358.614 237.234 331 237.234C303.386 237.234 281 189.994 281 162.404C281 134.814 303.386 119 331 119C358.614 119 381 134.814 381 162.404Z" fill="black"/>
<path fill-rule="evenodd" clip-rule="evenodd" d="M345.282 233.044C365.938 220.888 381 185.036 381 162.404C381 134.814 358.614 119 331 119C303.386 119 281 134.814 281 162.404C281 185.036 296.062 220.888 316.718 233.044C321.243 232.046 326.037 231.536 331 231.536C335.963 231.536 340.757 232.046 345.282 233.044Z" fill="#FF9408"/>
<path d="M890 218H909L904.25 231H894.75L890 218Z" fill="black"/>
<path d="M892.5 220.5C892.5 217.168 896.223 212.743 899.5 212.5C904.584 212.123 906.5 216.539 906.5 220" stroke="black" stroke-width="2" stroke-linecap="round"/>
<path d="M892 219C891.672 216.225 888.917 212.686 887.583 210.268C883.682 203.194 879.87 196.085 876 189" stroke="black" stroke-width="2" stroke-linecap="round"/>
<path d="M896 214C896 212.15 894.725 210.203 894.044 208.444C892.168 203.592 890.447 198.747 888 194" stroke="black" stroke-width="2" stroke-linecap="round"/>
<path d="M900 197V211.83" stroke="black" stroke-width="2" stroke-linecap="round"/>
<path d="M904 213C906.241 206.517 907.964 199.626 910 193" stroke="black" stroke-width="2" stroke-linecap="round"/>
<path d="M906 220C911.834 210.954 916.105 201.047 922 192" stroke="black" stroke-width="2" stroke-linecap="round"/>
<path d="M984 73.3527C984 119.98 946.168 199.815 899.5 199.815C852.832 199.815 815 119.98 815 73.3527C815 26.7251 852.832 0 899.5 0C946.168 0 984 26.7251 984 73.3527Z" fill="black"/>
<path fill-rule="evenodd" clip-rule="evenodd" d="M923.637 192.735C958.544 172.192 984 111.6 984 73.3527C984 26.7251 946.168 0 899.5 0C852.832 0 815 26.7251 815 73.3527C815 111.6 840.456 172.192 875.363 192.735C883.011 191.048 891.113 190.185 899.5 190.185C907.887 190.185 915.989 191.048 923.637 192.735Z" fill="#00A7FF"/>
<path d="M202.627 136.396H209.373L207.686 141.012H204.314L202.627 136.396Z" fill="black"/>
<path d="M203.515 137.284C203.515 136.101 204.837 134.53 206 134.444C207.805 134.31 208.485 135.878 208.485 137.106" stroke="black" stroke-linecap="round"/>
<path d="M203.337 136.751C203.221 135.766 202.243 134.51 201.769 133.651C200.384 131.14 199.031 128.616 197.657 126.101" stroke="black" stroke-linecap="round"/>
<path d="M204.757 134.976C204.757 134.32 204.305 133.628 204.063 133.004C203.397 131.281 202.786 129.561 201.917 127.876" stroke="black" stroke-linecap="round"/>
<path d="M206.178 128.941V134.206" stroke="black" stroke-linecap="round"/>
<path d="M207.598 134.621C208.393 132.32 209.005 129.873 209.728 127.521" stroke="black" stroke-linecap="round"/>
<path d="M208.308 137.107C210.379 133.895 211.895 130.377 213.988 127.166" stroke="black" stroke-linecap="round"/>
<path d="M236 85.0424C236 101.597 222.569 129.94 206 129.94C189.431 129.94 176 101.597 176 85.0424C176 68.4882 189.431 59 206 59C222.569 59 236 68.4882 236 85.0424Z" fill="black"/>
<path fill-rule="evenodd" clip-rule="evenodd" d="M214.569 127.427C226.963 120.133 236 98.6214 236 85.0424C236 68.4882 222.569 59 206 59C189.431 59 176 68.4882 176 85.0424C176 98.6214 185.037 120.133 197.431 127.427C200.146 126.828 203.022 126.521 206 126.521C208.978 126.521 211.854 126.828 214.569 127.427Z" fill="#FE5C00"/>
</svg>
