<svg width="12" height="12" viewBox="0 0 12 12" fill="none" xmlns="http://www.w3.org/2000/svg">
<path d="M6.35355 0.146447C6.15829 -0.0488155 5.84171 -0.0488155 5.64645 0.146447L2.46447 3.32843C2.2692 3.52369 2.2692 3.84027 2.46447 4.03553C2.65973 4.2308 2.97631 4.2308 3.17157 4.03553L5.5 1.70711V8.5C5.5 8.77614 5.72386 9 6 9C6.27614 9 6.5 8.77614 6.5 8.5V1.70711L8.82843 4.03553C9.02369 4.2308 9.34027 4.2308 9.53553 4.03553C9.7308 3.84027 9.7308 3.52369 9.53553 3.32843L6.35355 0.146447Z" fill="#00A7FF"/>
<path d="M1.5 8.5C1.5 8.22386 1.27614 8 1 8C0.723858 8 0.5 8.22386 0.5 8.5V10C0.5 11.1046 1.39543 12 2.5 12H9.5C10.6046 12 11.5 11.1046 11.5 10V8.5C11.5 8.22386 11.2761 8 11 8C10.7239 8 10.5 8.22386 10.5 8.5V10C10.5 10.5523 10.0523 11 9.5 11H2.5C1.94772 11 1.5 10.5523 1.5 10V8.5Z" fill="#00A7FF"/>
</svg>
