<svg width="400" height="383" viewBox="0 0 400 383" fill="none" xmlns="http://www.w3.org/2000/svg">
<path d="M732.16 -434.192C735.448 -331.07 698.067 -189.835 634.034 -73.5564C602.02 -15.4213 563.357 36.4505 519.812 74.1943C476.266 111.938 427.863 135.533 376.351 137.176C324.84 138.819 275.031 118.356 229.169 83.4637C183.307 48.5713 141.418 -0.731408 105.765 -56.7084C34.4527 -168.671 -11.8529 -307.237 -15.1417 -410.358C-18.4292 -513.439 20.7976 -595.828 86.625 -653.279C152.462 -710.738 244.938 -743.275 348.166 -746.567C451.394 -749.86 545.756 -723.281 615.121 -670.134C684.475 -616.994 728.872 -537.272 732.16 -434.192Z" fill="#FE5C00" stroke="#FE5C00"/>
<path d="M320.846 313.908C318.255 295.104 313.057 257.027 312.997 255.151C312.997 255.151 323.005 251.097 347.3 246.694C371.594 242.291 426.5 244.168 426.5 244.168L412.84 307.666L401.144 359.15C401.144 359.15 390.398 370.163 365.987 370.942C341.577 371.72 329.578 356.844 329.578 356.844L320.846 313.908Z" fill="#FE5C00" stroke="#FE5C00"/>
<path d="M345.513 191.959C345.135 193.752 325.876 237.847 316.294 259.671" stroke="#FE5C00" stroke-width="5"/>
<path d="M346.522 192.193L332.867 259.212" stroke="#FE5C00" stroke-width="5"/>
<path d="M391.456 194.517L424.469 245.761" stroke="#FE5C00" stroke-width="5"/>
<path d="M390.562 194.63L412.115 248.148" stroke="#FE5C00" stroke-width="5"/>
<path d="M351.054 200.478C348.445 198.961 344.999 191.281 344.999 191.281L392.243 193.829C392.243 193.829 389.855 199.241 386.615 201.372C383.375 203.502 379.071 205.723 368.386 205.261C357.701 204.798 353.663 201.996 351.054 200.478Z" fill="#FE5C00" stroke="#FE5C00"/>
<path d="M257.528 101.772L346.119 192.953" stroke="#FE5C00" stroke-width="5"/>
<path d="M288.267 85.3196L346.889 193.675" stroke="#FE5C00" stroke-width="5"/>
<path d="M308.297 84.3607L348.481 193.411" stroke="#FE5C00" stroke-width="5"/>
<path d="M390.348 194.637C391.501 193.319 429.51 144.482 448.37 120.228" stroke="#FE5C00" stroke-width="5"/>
<path d="M390.369 195.276L433.501 92.3185" stroke="#FE5C00" stroke-width="5"/>
<path d="M387.212 196.657L409.016 100.782" stroke="#FE5C00" stroke-width="5"/>
<path d="M345.443 220.185C345.385 221.998 345.899 223.638 346.753 224.826C347.608 226.013 348.783 226.727 350.068 226.768C351.352 226.809 352.57 226.171 353.499 225.041C354.427 223.91 355.045 222.306 355.103 220.493C355.16 218.68 354.646 217.04 353.792 215.852C352.937 214.665 351.762 213.951 350.478 213.91C349.193 213.869 347.975 214.507 347.046 215.637C346.118 216.768 345.5 218.372 345.443 220.185Z" fill="#FE5C00" stroke="#FE5C00"/>
<path d="M353.166 230.128C347.939 240.582 350.753 245.648 350.753 246.613L375.28 245.005L367.641 230.128C367.641 230.128 372.466 224.096 376.889 216.457C381.311 208.817 383.724 186.703 383.724 186.703C383.724 186.703 374.476 208.415 369.651 213.642C364.826 218.869 358.393 219.674 353.166 230.128Z" fill="#FE5C00" stroke="#FE5C00"/>
<path d="M361.677 186.82C361.677 186.82 363.15 192.773 366.293 194.92C369.436 197.067 372.088 196.579 374.937 194.92C377.785 193.261 378.571 184.576 378.767 183.112C378.963 181.648 381.714 167.986 381.714 167.986L375.919 173.451L373.856 155.496L370.811 163.205L361.088 147.298L364.722 178.33L355.98 167.206L361.677 186.82Z" fill="#FE5C00" stroke="#FE5C00"/>
</svg>
