<svg width="32" height="32" viewBox="0 0 32 32" fill="none" xmlns="http://www.w3.org/2000/svg">
<g id="Instagram">
<circle id="Ellipse 7" cx="16" cy="16.0001" r="16" fill="white"/>
<path id="Instagram_2" fill-rule="evenodd" clip-rule="evenodd" d="M13.744 10.0738C12.7679 10.1178 11.9219 10.3566 11.2388 11.0373C10.5533 11.7216 10.3176 12.5715 10.2735 13.5381C10.246 14.1414 10.0856 18.6991 10.5509 19.8943C10.8647 20.7007 11.4828 21.3207 12.296 21.6357C12.6754 21.7834 13.1086 21.8834 13.744 21.9126C19.0568 22.1532 21.0262 22.0222 21.8567 19.8943C22.004 19.5156 22.1055 19.0825 22.1335 18.4482C22.3763 13.1181 22.0941 11.9628 21.1682 11.0373C20.4338 10.3042 19.5699 9.80517 13.744 10.0738ZM13.7929 20.8406C13.2112 20.8144 12.8956 20.7174 12.685 20.6358C12.1552 20.4298 11.7572 20.0332 11.5526 19.5061C11.1982 18.5979 11.3158 14.2844 11.3474 13.5864C11.3784 12.9028 11.5168 12.2779 11.9989 11.7955C12.5955 11.2 13.3663 10.9081 18.6147 11.1451C19.2996 11.1761 19.9254 11.3143 20.4087 11.7955C21.0053 12.3911 21.3012 13.1684 21.0602 18.4002C21.0339 18.9808 20.9367 19.2959 20.855 19.5061C20.315 20.8908 19.0729 21.083 13.7929 20.8406ZM18.6726 12.8139C18.6726 13.2081 18.9929 13.5287 19.3885 13.5287C19.7841 13.5287 20.105 13.2081 20.105 12.8139C20.105 12.4196 19.7841 12.0993 19.3885 12.0993C18.9929 12.0993 18.6726 12.4196 18.6726 12.8139ZM13.1402 15.9929C13.1402 17.6818 14.5118 19.0512 16.2038 19.0512C17.8958 19.0512 19.2674 17.6818 19.2674 15.9929C19.2674 14.3039 17.8958 12.9355 16.2038 12.9355C14.5118 12.9355 13.1402 14.3039 13.1402 15.9929ZM14.2153 15.9929C14.2153 14.8971 15.1054 14.008 16.2038 14.008C17.3021 14.008 18.1923 14.8971 18.1923 15.9929C18.1923 17.0893 17.3021 17.9786 16.2038 17.9786C15.1054 17.9786 14.2153 17.0893 14.2153 15.9929Z" fill="black"/>
</g>
</svg>
