<svg xmlns="http://www.w3.org/2000/svg" width="36" height="28" viewBox="0 0 36 28" fill="none">
    <rect width="36" height="28" rx="3" fill="#D5AE6C"/>
    <path fill-rule="evenodd" clip-rule="evenodd" d="M17.9067 5.86743C20.2796 5.86743 22.4283 6.82092 23.9864 8.36334C25.5446 9.90576 26.5119 12.0371 26.522 14.3931V14.4303V14.4674C26.513 16.5625 25.7448 18.479 24.4781 19.9626C24.4609 19.954 24.4385 19.9384 24.4085 19.909C24.3593 19.8607 24.2909 19.7775 24.1969 19.6357C24.1183 19.5213 23.7404 18.9415 23.382 18.0905C23.0238 17.2396 22.6851 16.1177 22.6851 14.9194C22.6851 14.6842 22.8541 14.3829 23.0979 14.0597C23.3416 13.7366 23.6601 13.3916 23.9589 13.0692L23.9694 13.0579C24.1894 12.8191 24.4031 12.5872 24.5816 12.3706C24.7627 12.1506 24.9075 11.9462 24.9855 11.7663C25.0849 11.5342 25.0998 11.3372 25.0625 11.1843C25.0251 11.0314 24.9354 10.923 24.8253 10.8681C24.7259 10.8193 24.6014 10.8126 24.4758 10.865C24.3501 10.9172 24.223 11.0283 24.1182 11.2152C23.9462 11.5174 23.8326 11.6966 23.6994 11.851C23.5661 12.0053 23.4131 12.1347 23.1622 12.337C22.9153 12.5389 22.5956 12.7417 22.3377 12.828C22.0799 12.9145 21.8837 12.8845 21.8837 12.6214C21.8837 12.4792 21.9929 12.2471 22.1291 11.994C22.1773 11.9046 22.2288 11.8126 22.2801 11.721C22.3739 11.5535 22.4669 11.3874 22.5369 11.2416C22.647 11.0132 22.6427 10.8165 22.554 10.6767C22.4651 10.537 22.2919 10.4544 22.0645 10.4544C21.6173 10.4544 21.245 10.74 20.9847 11.0753C20.7245 11.4105 20.576 11.7951 20.576 11.9929C20.576 12.1832 20.6202 12.2949 20.6661 12.4109L20.6717 12.425C20.7197 12.5461 20.7675 12.6753 20.7675 12.9057C20.7675 13.1378 20.5222 13.4043 20.1614 13.6127C19.8005 13.8212 19.324 13.9717 18.8619 13.9717C18.3968 13.9717 18.0337 13.9223 17.7627 13.8027C17.4914 13.6828 17.3123 13.4927 17.2147 13.2109L17.1841 13.1192L17.1534 13.0274L17.1364 12.9776L17.1364 12.9776C17.0336 12.6771 16.944 12.4151 16.8483 12.1708C16.7475 11.913 16.6397 11.6747 16.5026 11.4312C16.4299 11.3023 16.3375 11.1932 16.239 11.0967C16.1461 11.0057 16.0478 10.9259 15.9557 10.8512L15.9557 10.8512L15.9557 10.8512L15.9392 10.8378C15.8123 10.739 15.716 10.644 15.6479 10.5569C15.5799 10.4698 15.5403 10.3903 15.5264 10.3225C15.5139 10.2552 15.5041 10.1582 15.5516 10.0049C15.5992 9.85172 15.704 9.64203 15.9207 9.34973C16.1373 9.05897 16.2606 8.80373 16.3029 8.59295C16.345 8.38203 16.306 8.21557 16.1979 8.10223C16.1586 8.06209 16.1054 8.02904 16.0408 8.00619C15.976 7.98318 15.8997 7.97021 15.8138 7.97021C15.6618 7.97021 15.4803 8.01067 15.2824 8.1064C15.0846 8.20214 14.8704 8.35346 14.6529 8.5752C14.3147 8.92262 14.2416 9.2614 14.2531 9.54954C14.2594 9.71131 14.2925 9.85711 14.3203 9.9795C14.342 10.075 14.3604 10.1562 14.3604 10.2197C14.3604 10.3645 14.3294 10.478 14.2476 10.6045C14.1659 10.7308 14.0334 10.8702 13.8305 11.0671C13.6263 11.2649 13.4888 11.4486 13.3967 11.7533C13.3044 12.0581 13.2573 12.4837 13.2339 13.1652C13.2248 13.5165 13.1896 13.7932 13.1427 14.027C13.0959 14.2608 13.0375 14.4515 12.9822 14.6308C12.9343 14.788 12.8884 14.9404 12.8537 15.1068C12.8192 15.2733 12.7961 15.4538 12.7936 15.6673C12.7899 15.9037 12.8076 16.0983 12.8377 16.2776C12.8679 16.4568 12.9104 16.621 12.9564 16.7969C13.0011 16.9594 13.0474 17.1339 13.0902 17.3456C13.1329 17.5572 13.172 17.8061 13.2026 18.1177C13.2554 18.6402 13.2696 19.1187 13.2435 19.5801C13.2174 20.0414 13.1507 20.4853 13.042 20.9386L13.0366 20.9686L13.0313 20.9984L13.0276 21.0134C13.0074 21.0945 12.9853 21.1836 12.9597 21.2573C12.9399 21.3142 12.918 21.3613 12.8935 21.3892C12.5095 21.1158 12.1477 20.8136 11.8145 20.4827C10.2554 18.9334 9.29102 16.7936 9.29102 14.4305C9.29102 12.0661 10.2554 9.92537 11.8145 8.3757C13.3737 6.82602 15.5275 5.86743 17.9067 5.86743ZM20.6001 21.4864C20.6001 21.614 20.5945 21.7269 20.5838 21.8214C20.5731 21.9159 20.5571 21.9918 20.5366 22.0456C20.4873 22.1651 20.3708 22.2817 20.2065 22.3873C20.1428 22.428 20.0701 22.4666 19.9932 22.5039C19.3269 22.668 18.6306 22.7565 17.9133 22.7565C17.8613 22.7565 17.8099 22.7547 17.7584 22.753L17.7578 22.753C17.7343 22.7522 17.7109 22.7514 17.6874 22.7508C17.5971 22.7251 17.5128 22.6947 17.4376 22.6583C17.2712 22.578 17.1437 22.472 17.0641 22.3427C16.8833 22.0487 16.7909 21.5666 16.7427 20.9645C16.6946 20.3625 16.6907 19.6404 16.6876 18.8661L16.686 18.645L16.6845 18.4237C16.6787 17.6425 16.6734 16.9151 16.7406 16.3226C16.8078 15.73 16.9473 15.2724 17.2311 15.0308C17.3411 14.9377 17.4742 14.8758 17.633 14.8455C17.7918 14.8152 17.976 14.8165 18.1881 14.8498C18.9943 14.9744 19.4319 15.2853 19.6836 15.6745C19.9345 16.0624 20.0008 16.5283 20.063 16.9658L20.0637 16.9705L20.0705 17.0193L20.0774 17.0679L20.1147 17.3152L20.1518 17.5624L20.156 17.5896C20.2286 18.0616 20.3381 18.7735 20.4303 19.4948C20.5243 20.2301 20.6001 20.9753 20.6001 21.4864ZM23.3113 20.5575C23.3521 20.3564 23.1257 19.6872 22.8201 19.1005C22.5145 18.5137 22.1297 18.0094 21.8542 18.1379C21.6426 18.239 21.5778 18.8705 21.6207 19.5696C21.6634 20.2684 21.8138 21.0348 22.0323 21.4054C22.0723 21.4707 22.1487 21.4886 22.2379 21.4803C22.2463 21.4795 22.2551 21.478 22.2639 21.4765L22.2762 21.4744C22.6057 21.2826 22.9209 21.0698 23.2206 20.8377C23.223 20.8329 23.2256 20.8282 23.2281 20.8236C23.232 20.8167 23.2359 20.8097 23.2392 20.8019C23.269 20.734 23.2931 20.6545 23.3113 20.5575ZM15.0333 19.0871C15.1349 19.6561 15.1999 20.3846 15.2216 21.0131C15.239 21.5164 15.2163 21.8494 15.1658 22.066C15.1286 22.226 15.0761 22.3223 15.0136 22.3771C14.8482 22.3217 14.6847 22.2618 14.524 22.1968C14.4794 22.1156 14.439 22.016 14.4036 21.8972C14.3537 21.7305 14.3131 21.5279 14.2829 21.2932C14.2033 20.6622 14.198 19.874 14.2582 19.2406C14.3181 18.6073 14.4435 18.129 14.6251 18.1178C14.7935 18.1084 14.9317 18.5181 15.0333 19.0871Z" fill="#FEFEFE"/>
</svg>