<svg xmlns="http://www.w3.org/2000/svg" width="112" height="28" viewBox="0 0 112 28" fill="none">
    <path fill-rule="evenodd" clip-rule="evenodd" d="M14.0191 0C6.26467 0 0 6.2473 0 13.9041C0 18.5514 2.33015 22.7036 5.84447 25.2178C5.92087 25.1035 5.99727 24.8368 6.07367 24.5702V24.4559C6.41746 22.9703 6.49386 21.5608 6.34106 19.8847C6.22647 18.8562 6.07367 18.2848 5.92087 17.7515C5.76808 17.1801 5.65348 16.6849 5.65348 15.923C5.65348 15.2373 5.80627 14.7421 5.95907 14.2469L5.95907 14.2469C6.15007 13.6755 6.34106 12.9898 6.37926 11.847C6.45566 9.63761 6.68486 9.06621 7.33424 8.41862C7.98363 7.77103 8.21282 7.50438 8.21282 7.04726C8.21282 6.94783 8.18391 6.81776 8.14966 6.66372C8.02646 6.10956 7.83429 5.24515 8.67121 4.38073C9.4352 3.69505 10.1228 3.4284 10.6194 3.4284C10.8868 3.4284 11.116 3.50458 11.2306 3.65696C11.5744 4.03789 11.498 4.72357 10.7722 5.6759C10.0846 6.62823 10.0846 7.04726 10.1228 7.27582C10.161 7.50438 10.3902 7.80913 10.8104 8.11387C10.867 8.16333 10.9264 8.21279 10.9868 8.26322C11.2524 8.48468 11.5405 8.7249 11.7271 9.06621C12.0899 9.6992 12.3091 10.3083 12.574 11.0446C12.6439 11.2388 12.717 11.4419 12.7967 11.6566L12.9113 11.9613C13.2169 12.8755 14.0955 13.1803 15.5853 13.1803C17.075 13.1803 18.6794 12.1899 18.6794 11.428C18.6794 11.0316 18.5967 10.8208 18.5173 10.6186C18.4441 10.4322 18.3738 10.253 18.3738 9.94235C18.3738 9.29477 19.3288 7.42819 20.7804 7.42819C21.5061 7.42819 21.9263 7.9615 21.5443 8.72337C21.4307 8.96269 21.2752 9.23949 21.1181 9.51935L21.118 9.51938C20.7999 10.0859 20.4748 10.6649 20.4748 10.9709C20.4748 11.8089 21.7353 11.1613 22.5375 10.5138C23.3397 9.86617 23.5307 9.6757 24.1037 8.68527C24.4475 8.07578 24.9441 7.9615 25.2497 8.11387C25.5935 8.30434 25.8226 8.83765 25.5171 9.56142C25.2497 10.1328 24.5621 10.8947 23.8363 11.6946C23.775 11.7631 23.7131 11.832 23.6509 11.9012C22.7437 12.9111 21.7735 13.991 21.7735 14.704C21.7735 18.5895 23.9891 22.0179 24.2183 22.3608C24.4475 22.7417 24.6003 22.856 24.6767 22.8941C26.7394 20.4942 28 17.3705 28 13.9421V13.8279C28 6.20921 21.7353 0 14.0191 0ZM18.3348 26.7811C18.2202 27.0477 17.8764 27.3144 17.418 27.543C16.3102 27.8096 15.1643 27.962 13.9801 28.0001H13.5981C13.1015 27.8477 12.7577 27.6191 12.5667 27.3144C11.9937 26.324 11.9555 24.1527 11.9555 21.6004V20.8766L11.9554 20.5929C11.9541 18.1618 11.9529 16.0852 12.8723 15.315C13.2161 15.0103 13.7509 14.896 14.4385 15.0103C17.1124 15.3912 17.3416 17.0292 17.5326 18.4768L17.5708 18.6291L17.7236 19.4291C17.7428 19.5599 17.7639 19.7022 17.7864 19.8542L17.7865 19.8552C18.0327 21.5175 18.4494 24.3315 18.4494 25.8669C18.4494 26.2859 18.4112 26.5906 18.3348 26.7811ZM8.93874 20.304C9.47352 20.304 9.81732 22.9705 9.89372 25.0275C9.97011 26.4751 9.81732 27.0465 9.54992 27.275C9.41624 27.2179 9.28255 27.1703 9.14887 27.1227L9.14886 27.1227L9.14884 27.1227C9.01514 27.075 8.88144 27.0274 8.74774 26.9703C8.59494 26.6274 8.44214 26.1322 8.36575 25.4846C8.13655 23.4276 8.36575 20.342 8.93874 20.304ZM20.3998 20.6092C21.3166 20.1902 22.9591 23.8852 22.8063 24.5328C22.7936 24.5836 22.7766 24.6344 22.7597 24.6852C22.7257 24.7868 22.6917 24.8883 22.6917 24.9899C22.1952 25.3709 21.6604 25.7137 21.1256 26.0185C20.9346 26.0565 20.7818 26.0185 20.7054 25.9042C19.9796 24.7233 19.7122 20.952 20.3998 20.6092Z" fill="white"/>
    <path fill-rule="evenodd" clip-rule="evenodd" d="M112 18.8929H107.457L111.884 13.0646V11.3885H104.8L102.952 13.7503H107.957L103.53 19.5405V21.2547H112V18.8929ZM81.3927 21.2547H84.5112V11.4266H81.3927V21.2547ZM74.8478 13.5979C75.8873 13.5979 76.3878 14.474 76.3878 16.2263H76.4263V16.6073C76.3878 18.2834 75.8873 19.1214 74.8863 19.1214C74.1548 19.1214 73.6543 18.8167 73.3848 18.2834V14.3979C73.6158 13.8646 74.1163 13.5979 74.8478 13.5979ZM78.4283 20.0738C79.1213 19.1595 79.4677 17.9405 79.4677 16.4168H79.4292V16.2644C79.4292 14.7026 79.0827 13.4836 78.3898 12.5694C77.7353 11.6932 76.7728 11.2361 75.5408 11.2361C74.5783 11.2361 73.7698 11.6171 73.1923 12.3408L73.1153 11.4266H70.2279V25.4449H73.3463V20.4547C73.9623 21.1023 74.6938 21.4451 75.6178 21.4451C76.7728 21.4451 77.7353 20.988 78.4283 20.0738ZM64.9535 17.8644C65.2229 18.0548 65.3769 18.2453 65.3769 18.5119C65.3769 18.7786 65.2999 19.0071 65.0689 19.0833C64.8379 19.2738 64.53 19.35 64.1065 19.35C63.6445 19.35 63.298 19.2357 62.99 19.0452C62.682 18.8548 62.528 18.5119 62.528 18.0548H59.6405C59.6405 18.6262 59.833 19.1595 60.218 19.6928C60.603 20.2261 61.142 20.6452 61.7965 20.9499C62.451 21.2547 63.221 21.407 64.068 21.407C65.3769 21.407 66.4164 21.1404 67.2249 20.569C68.0334 19.9976 68.4184 19.2738 68.4184 18.3596C68.4184 17.0263 67.6869 16.1121 66.1854 15.6168C65.7234 15.4645 65.1844 15.3502 64.607 15.2359C63.991 15.1216 63.5675 14.9693 63.298 14.8169C63.0285 14.6645 62.8745 14.436 62.8745 14.1693C62.8745 13.9027 62.99 13.6741 63.221 13.4836C63.4135 13.2932 63.7215 13.217 64.0295 13.217C64.8764 13.217 65.2999 13.5979 65.2999 14.3979H68.3414C68.3414 13.4455 67.9564 12.6456 67.1479 12.0742C66.3779 11.5028 65.2999 11.198 63.991 11.198C62.759 11.198 61.7965 11.5028 61.0265 12.0742C60.295 12.6837 59.91 13.4074 59.91 14.3217C59.91 14.855 60.0255 15.3121 60.295 15.693C60.5645 16.074 60.9495 16.4168 61.45 16.6835C61.9505 16.9882 62.605 17.2168 63.375 17.3691C64.145 17.5596 64.684 17.712 64.9535 17.8644ZM54.4046 19.0452C54.1351 19.1976 53.8271 19.2738 53.4421 19.2738C53.1341 19.2738 52.9031 19.1595 52.7106 19.0452C52.5181 18.8548 52.4411 18.6262 52.4411 18.3596C52.4411 17.4072 52.9801 16.912 54.0581 16.912H54.9436V18.4738C54.8281 18.7024 54.6741 18.8929 54.4046 19.0452ZM55.157 20.5777L55.157 20.5777L55.157 20.5777C55.2422 20.8661 55.311 21.0987 55.4056 21.2547V21.2927H58.4855V21.1404C58.216 20.6452 58.062 19.9595 58.062 19.0452V14.5883C58.062 13.5217 57.6771 12.6837 56.9456 12.0742C56.2141 11.4647 55.2516 11.1599 53.9426 11.1599C52.6336 11.1599 51.5941 11.4266 50.7857 12.0361C49.9772 12.6456 49.5537 13.4074 49.5537 14.3598H52.6721C52.6721 13.636 53.0571 13.2932 53.7886 13.2932C54.5971 13.2932 54.9821 13.7503 54.9821 14.6645V15.1978H54.0196C52.4796 15.1978 51.3246 15.5026 50.5162 16.0359C49.7077 16.6073 49.3227 17.4072 49.3227 18.4738C49.3227 19.35 49.6692 20.0357 50.3237 20.6071C50.9782 21.1785 51.7866 21.4451 52.7106 21.4451C53.7116 21.4451 54.5201 21.1023 55.0976 20.3785C55.1185 20.4475 55.1381 20.5139 55.157 20.5777ZM40.6988 18.1691L41.8153 16.6454L44.8952 21.2547H48.7452L43.8558 13.9788L49.0917 7.23633H45.0877L40.6988 12.9884V7.23633H37.4648V21.2547H40.6988V18.1691ZM90.1324 19.8096C90.1324 20.6858 89.4009 21.4096 88.5154 21.4096C87.5914 21.4096 86.8599 20.6858 86.8599 19.8096C86.8599 18.8954 87.6299 18.2097 88.5154 18.2097C89.4009 18.2097 90.1324 18.9335 90.1324 19.8096ZM82.8958 10.4755C83.7813 10.4755 84.5128 9.75171 84.5128 8.87556C84.5128 7.99941 83.7813 7.27564 82.8958 7.27564C82.0103 7.27564 81.2788 7.99941 81.2788 8.87556C81.2788 9.75171 82.0103 10.4755 82.8958 10.4755ZM95.9845 19.2357L96.9854 17.9786L99.1799 21.2166L102.568 21.2547L98.8334 15.6549L102.106 11.3885H98.6794L95.9845 14.8931V7.23633H92.866V21.2547H95.9845V19.2357Z" fill="white"/>
</svg>