<svg width="85" height="58" viewBox="0 0 85 58" fill="none" xmlns="http://www.w3.org/2000/svg">
<g id="Layer_3" clip-path="url(#clip0_915_336)">
<g id="Group">
<path id="Vector" d="M0.710938 52.9302C0.710938 52.2228 0.838887 51.5686 1.09855 50.9563C1.35445 50.3478 1.71196 49.8115 2.17107 49.3513C2.62642 48.8911 3.17585 48.526 3.81184 48.256C4.44782 47.9822 5.14778 47.83 5.91172 47.7996C6.66813 47.7654 7.36809 47.8566 8.00783 48.0772C8.64758 48.2978 9.20078 48.6135 9.65989 49.0357C10.1228 49.4578 10.4803 49.9599 10.7399 50.5494C10.9958 51.1389 11.1275 51.7854 11.1275 52.489C11.1275 53.1432 11.0222 53.7631 10.8114 54.3412C10.6007 54.9193 10.2921 55.4442 9.89321 55.912C10.533 56.5395 10.8528 56.8552 11.4888 57.4751C10.5894 57.6919 10.1416 57.7984 9.24217 58C8.89972 57.6653 8.72661 57.498 8.38039 57.1595C8.01536 57.3496 7.62775 57.5056 7.21379 57.6235C6.8036 57.7414 6.36707 57.8098 5.91172 57.8326C5.14778 57.8669 4.44782 57.7604 3.81184 57.5208C3.17585 57.2812 2.63018 56.9351 2.17107 56.4901C1.71196 56.0413 1.35445 55.5126 1.09855 54.9041C0.838887 54.2956 0.710938 53.6376 0.710938 52.934V52.9302ZM3.26617 52.8998C3.26617 53.2801 3.33767 53.6262 3.47691 53.9419C3.61991 54.2576 3.80807 54.5314 4.04892 54.7596C4.28977 54.9878 4.57201 55.1627 4.89188 55.2806C5.21176 55.3985 5.55045 55.4518 5.90795 55.4366C6.12246 55.429 6.34072 55.3909 6.55523 55.3301C5.99827 54.7634 5.71603 54.4781 5.15907 53.9039C6.08106 53.7517 6.54394 53.6719 7.46593 53.5045C7.72559 53.7669 7.85354 53.9001 8.1132 54.1587C8.41426 53.7213 8.56103 53.2231 8.56103 52.6678C8.56103 52.2913 8.48953 51.9452 8.35029 51.6333C8.20729 51.3214 8.01536 51.059 7.77075 50.8346C7.52614 50.614 7.2439 50.4467 6.92402 50.3326C6.60415 50.2185 6.26546 50.169 5.90795 50.1842C5.55045 50.1995 5.21176 50.2793 4.89188 50.4201C4.57201 50.5608 4.28977 50.7547 4.04892 50.9943C3.80807 51.2378 3.61615 51.5192 3.47691 51.8425C3.33391 52.1658 3.26617 52.5157 3.26617 52.8922V52.8998Z" fill="black"/>
<path id="Vector_2" d="M15.4256 56.8324C14.4472 56.9389 13.9579 56.9883 12.9795 57.0796C12.9795 53.2801 12.9795 51.3785 12.9795 47.5752C14.5375 47.4307 15.3127 47.347 16.8707 47.1645C17.9281 47.0428 18.7335 47.2177 19.2979 47.6969C19.8587 48.1799 20.1409 48.9216 20.1409 49.9294C20.1409 50.9373 19.8587 51.755 19.2979 52.3826C18.7372 53.0101 17.9281 53.3904 16.8707 53.5121C16.2911 53.5806 16.0014 53.611 15.4256 53.6757C15.4256 54.9346 15.4256 55.5659 15.4256 56.8286V56.8324ZM15.4256 51.6904C15.7492 51.6561 15.911 51.6371 16.2347 51.5991C17.1341 51.4964 17.5819 51.0476 17.5819 50.2565C17.5819 49.4654 17.1341 49.1269 16.2347 49.2296C15.911 49.2677 15.7492 49.2829 15.4256 49.3209C15.4256 50.2679 15.4256 50.7433 15.4256 51.6904Z" fill="black"/>
<path id="Vector_3" d="M31.6521 47.058C30.4893 47.2596 29.9097 47.3584 28.7469 47.5524V49.1422C29.8457 48.9596 30.3914 48.8645 31.4903 48.6744V50.7662C30.3914 50.9563 29.8457 51.0514 28.7469 51.234V52.8732C29.9097 52.6792 30.4893 52.5803 31.6521 52.3788C31.6521 53.2155 31.6521 53.6339 31.6521 54.4706C29.5108 54.8433 28.4421 55.0221 26.3008 55.3605C26.3008 51.5573 26.3008 49.6594 26.3008 45.8562C28.4421 45.5177 29.5108 45.3351 31.6521 44.9662C31.6521 45.8029 31.6521 46.2213 31.6521 47.058Z" fill="black"/>
<path id="Vector_4" d="M36.413 48.5489C35.2389 46.9895 34.6556 46.206 33.4814 44.6391C34.6894 44.4261 35.2916 44.3158 36.4996 44.0952C37.0076 44.9852 37.2635 45.4302 37.7715 46.3201C38.4 45.221 38.7161 44.6733 39.3446 43.5742C40.5526 43.3498 41.1547 43.2395 42.3627 43.0113C41.1208 45.0156 40.4999 46.0197 39.258 48.024C40.6579 49.7925 41.3616 50.6749 42.7616 52.4396C41.5686 52.6602 40.974 52.7743 39.7811 52.9949C39.0284 51.8958 38.6521 51.3443 37.8995 50.2413C37.0151 51.6447 36.5748 52.3445 35.6905 53.7441C34.5088 53.9571 33.918 54.0636 32.7363 54.2728C34.2077 51.987 34.9453 50.8422 36.4168 48.5451L36.413 48.5489Z" fill="black"/>
<path id="Vector_5" d="M46.5018 51.7474C45.5233 51.9262 45.0341 52.0174 44.0557 52.2V42.6956C45.6136 42.4066 46.3889 42.262 47.9468 41.9768C49.0043 41.7828 49.8096 41.9159 50.3741 42.3685C50.9348 42.8211 51.2171 43.5551 51.2171 44.563C51.2171 45.5709 50.9348 46.4038 50.3741 47.058C49.8134 47.7121 49.0043 48.1381 47.9468 48.3321C47.3673 48.4386 47.0775 48.4918 46.5018 48.5983V51.7512V51.7474ZM46.5018 46.6054C46.8254 46.5445 46.9872 46.5141 47.3109 46.4571C48.2103 46.2935 48.6581 45.8143 48.6581 45.027C48.6581 44.2397 48.2103 43.9241 47.3109 44.0876C46.9872 44.1485 46.8254 44.1789 46.5018 44.2359V46.6054Z" fill="black"/>
<path id="Vector_6" d="M60.6441 49.3209C59.4285 49.5034 58.8189 49.6023 57.5996 49.7963C56.6663 48.4842 56.1997 47.83 55.2664 46.5293V50.1842C54.288 50.3478 53.7988 50.4353 52.8203 50.6064V41.102C54.3407 40.8358 55.1008 40.7065 56.6249 40.4555C57.148 40.368 57.6071 40.3718 57.9947 40.4669C58.3861 40.5581 58.706 40.7217 58.9619 40.9499C59.214 41.1781 59.406 41.4595 59.5339 41.7942C59.6619 42.1289 59.7258 42.494 59.7258 42.8972C59.7258 43.6198 59.5527 44.2321 59.2065 44.7341C58.8603 45.2362 58.3523 45.6241 57.6786 45.8903C58.8603 47.2557 59.4511 47.9441 60.6328 49.3209H60.6441ZM55.2702 44.9281C55.4546 44.8977 55.5487 44.8825 55.7331 44.852C56.2147 44.7722 56.5835 44.6086 56.8432 44.3652C57.0991 44.1218 57.2308 43.8099 57.2308 43.4334C57.2308 43.0569 57.1029 42.7869 56.8432 42.6271C56.5835 42.4674 56.2147 42.4294 55.7331 42.5092C55.5487 42.5396 55.4546 42.5549 55.2702 42.5853V44.9281Z" fill="black"/>
<path id="Vector_7" d="M67.3318 40.9956C66.1689 41.1363 65.5894 41.2123 64.4266 41.3683C64.4266 42.0034 64.4266 42.3229 64.4266 42.958C65.5254 42.8097 66.0711 42.7375 67.17 42.6043V44.6961C66.0711 44.8293 65.5254 44.9015 64.4266 45.0498C64.4266 45.704 64.4266 46.0349 64.4266 46.6891C65.5894 46.5331 66.1689 46.4571 67.3318 46.3163C67.3318 47.1531 67.3318 47.5714 67.3318 48.4081C65.1905 48.6668 64.1217 48.8113 61.9805 49.1232C61.9805 45.3237 61.9805 43.422 61.9805 39.6188C64.1217 39.3069 65.1905 39.1624 67.3318 38.9037C67.3318 39.7405 67.3318 40.1588 67.3318 40.9956Z" fill="black"/>
<path id="Vector_8" d="M74.5641 40.6152C74.2969 40.4174 74.0335 40.2767 73.7663 40.193C73.4991 40.1094 73.2432 40.0789 72.9949 40.1018C72.6787 40.1284 72.4228 40.2273 72.2234 40.3984C72.0239 40.5696 71.9223 40.7749 71.9223 41.0184C71.9223 41.1857 71.9713 41.3188 72.0729 41.4215C72.1707 41.5204 72.3024 41.6041 72.4642 41.6687C72.6261 41.7334 72.8105 41.7866 73.0137 41.8285C73.2169 41.8703 73.4201 41.9159 73.6196 41.9654C74.4174 42.1669 75.0007 42.4864 75.3732 42.9086C75.742 43.3307 75.9264 43.905 75.9264 44.6277C75.9264 45.1145 75.8436 45.5633 75.6818 45.9664C75.52 46.3734 75.2829 46.7271 74.9705 47.0313C74.6582 47.3356 74.2781 47.5828 73.8228 47.7768C73.3712 47.9708 72.8556 48.0925 72.2836 48.1419C71.0944 48.2522 69.9918 48.0088 68.9795 47.4079C69.3972 46.5635 69.608 46.1452 70.0257 45.3008C70.3907 45.5899 70.752 45.7953 71.1095 45.9208C71.467 46.0463 71.8207 46.0919 72.1707 46.0577C72.5696 46.0197 72.8669 45.9018 73.0626 45.7002C73.2583 45.4986 73.3561 45.2818 73.3561 45.046C73.3561 44.9015 73.3298 44.7798 73.2809 44.6809C73.2319 44.5782 73.1491 44.4907 73.0325 44.4109C72.9158 44.3348 72.7653 44.2626 72.5771 44.2055C72.389 44.1447 72.1594 44.08 71.896 44.0153C71.5836 43.9393 71.2713 43.8632 70.9665 43.7719C70.6617 43.6807 70.3945 43.5475 70.1574 43.3688C69.9203 43.1938 69.7284 42.958 69.5854 42.669C69.4386 42.3799 69.3671 41.9996 69.3671 41.528C69.3671 41.0564 69.4424 40.6228 69.5967 40.2235C69.751 39.8241 69.9655 39.4742 70.2439 39.17C70.5224 38.8695 70.8649 38.6223 71.2675 38.4283C71.6702 38.2382 72.1218 38.1203 72.6223 38.0746C73.0889 38.0328 73.5744 38.0556 74.0824 38.1469C74.5905 38.2382 75.0759 38.3903 75.5426 38.6109C75.1549 39.4096 74.9593 39.8089 74.5716 40.6114L74.5641 40.6152Z" fill="black"/>
<path id="Vector_9" d="M82.9303 40.2349C82.6631 40.0181 82.3997 39.8622 82.1325 39.7633C81.8653 39.6644 81.6094 39.615 81.3611 39.6226C81.045 39.6302 80.7891 39.7138 80.5896 39.8698C80.3902 40.0257 80.2885 40.2273 80.2885 40.4707C80.2885 40.638 80.3375 40.775 80.4391 40.8814C80.5369 40.9879 80.6686 41.0792 80.8304 41.1515C80.9923 41.2275 81.1767 41.2922 81.3799 41.3454C81.5831 41.3987 81.7863 41.4557 81.9858 41.5204C82.7836 41.7752 83.3669 42.1289 83.7394 42.5777C84.1082 43.0265 84.2926 43.6122 84.2926 44.3348C84.2926 44.8216 84.2098 45.2628 84.048 45.6584C83.8862 46.0539 83.6491 46.3924 83.3368 46.6776C83.0244 46.9629 82.6406 47.1835 82.189 47.347C81.7374 47.5106 81.2218 47.6018 80.6498 47.6171C79.4606 47.6551 78.358 47.347 77.3457 46.6929C77.7634 45.8713 77.9742 45.4644 78.3919 44.6467C78.7569 44.9586 79.1182 45.183 79.4757 45.3313C79.8332 45.4758 80.1869 45.5443 80.5369 45.5329C80.9358 45.5214 81.2331 45.4188 81.4288 45.2324C81.6245 45.0422 81.7223 44.8292 81.7223 44.5934C81.7223 44.4489 81.696 44.3272 81.6471 44.2245C81.5982 44.1218 81.5154 44.0268 81.3987 43.9393C81.282 43.8556 81.1315 43.7757 80.9433 43.7073C80.7552 43.635 80.5256 43.5551 80.2622 43.4753C79.9499 43.384 79.6375 43.2851 79.3327 43.1748C79.0279 43.0645 78.7607 42.9162 78.5236 42.726C78.2865 42.5359 78.0946 42.2925 77.9516 41.992C77.8048 41.6915 77.7333 41.3074 77.7333 40.8396C77.7333 40.368 77.8086 39.9382 77.9629 39.5465C78.1172 39.1548 78.3317 38.8163 78.6101 38.531C78.8886 38.2458 79.2311 38.0176 79.6337 37.8502C80.0364 37.6829 80.488 37.5916 80.9885 37.5764C81.4551 37.565 81.9406 37.6182 82.4486 37.7399C82.9567 37.8616 83.4421 38.048 83.9088 38.299C83.5212 39.0711 83.3255 39.459 82.9379 40.2349H82.9303Z" fill="black"/>
</g>
<g id="Group_2">
<path id="Vector_10" d="M67.3771 12.5698C67.3771 5.86084 62.1763 0.380313 55.6283 0.0190014C48.4518 -0.37654 42.3403 5.59841 42.5022 12.8627C42.6038 17.4076 45.095 21.3554 48.7566 23.4776H48.7529C48.7529 23.4776 50.9167 24.7479 51.9817 27.0109C52.5763 28.2774 52.757 29.445 52.7984 30.2284C52.8285 30.7875 53.28 31.2287 53.837 31.2287H56.0498C56.6067 31.2287 57.0583 30.7875 57.0884 30.2284C57.1298 29.445 57.3105 28.2774 57.9051 27.0109C58.97 24.7479 61.1339 23.4776 61.1339 23.4776H61.1301C64.867 21.3098 67.3846 17.2402 67.3846 12.5698H67.3771Z" fill="#00A7FF"/>
<path id="Vector_11" d="M54.9396 15.7227C54.9396 9.01373 49.7388 3.53321 43.1908 3.17189C36.0143 2.77635 29.9028 8.7513 30.0647 16.0156C30.1663 20.5605 32.6575 24.5083 36.3191 26.6305H36.3154C36.3154 26.6305 38.4792 27.9008 39.5442 30.1638C40.1388 31.4303 40.3195 32.5979 40.3609 33.3813C40.391 33.9404 40.8425 34.3816 41.3995 34.3816H43.6123C44.1692 34.3816 44.6208 33.9404 44.6509 33.3813C44.6923 32.5979 44.873 31.4303 45.4676 30.1638C46.5325 27.9008 48.6964 26.6305 48.6964 26.6305H48.6926C52.4295 24.4626 54.9471 20.3931 54.9471 15.7227H54.9396Z" fill="#FF9408"/>
<path id="Vector_12" d="M42.5021 18.8719C42.5021 12.1629 37.3013 6.68238 30.7533 6.32106C23.5768 5.92552 17.4653 11.9005 17.6272 19.1647C17.7288 23.7097 20.22 27.6575 23.8816 29.7797H23.8779C23.8779 29.7797 26.0417 31.05 27.1067 33.3129C27.7013 34.5794 27.882 35.747 27.9234 36.5305C27.9535 37.0896 28.405 37.5308 28.962 37.5308H31.1748C31.7317 37.5308 32.1833 37.0896 32.2134 36.5305C32.2548 35.747 32.4355 34.5794 33.0301 33.3129C34.095 31.05 36.2589 29.7797 36.2589 29.7797H36.2551C39.992 27.6118 42.5096 23.5423 42.5096 18.8719H42.5021Z" fill="#FE5C00"/>
</g>
</g>
<defs>
<clipPath id="clip0_915_336">
<rect width="85" height="58" fill="white"/>
</clipPath>
</defs>
</svg>
