<svg width="50" height="31" viewBox="0 0 50 31" fill="none" xmlns="http://www.w3.org/2000/svg">
<g id="Group">
<path id="Vector" d="M31.7593 3.30945H18.2402V27.6052H31.7593V3.30945Z" fill="#FF5F00"/>
<path id="Vector_2" d="M19.0988 15.4551C19.0945 10.7127 21.2705 6.23634 25 3.30934C18.292 -1.96526 8.57967 -0.802186 3.30507 5.91016C-1.96953 12.6182 -0.806459 22.3305 5.90589 27.6051C11.511 32.0085 19.3993 32.0085 25 27.6051C21.2705 24.6781 19.0945 20.1975 19.0988 15.4594V15.4551Z" fill="#EB001B"/>
<path id="Vector_3" d="M50.0001 15.4551C50.0001 23.9872 43.0818 30.9055 34.5497 30.9055C31.0862 30.9055 27.7258 29.7424 25.0005 27.6008C31.7085 22.3262 32.8716 12.6097 27.597 5.9016C26.8374 4.93595 25.9661 4.06471 25.0005 3.30507C31.7085 -1.96953 41.4208 -0.806459 46.6954 5.90589C48.837 8.62688 50.0001 11.9916 50.0001 15.4551Z" fill="#F79E1B"/>
<path id="Vector_4" d="M48.5234 25.0302V24.5323H48.7251V24.4293H48.2144V24.5323H48.4161V25.0302H48.5277H48.5234ZM49.5148 25.0302V24.4293H49.3603L49.18 24.8413L48.9998 24.4293H48.8452V25.0302H48.9568V24.5795L49.1242 24.9701H49.2401L49.4075 24.5795V25.0345H49.5191L49.5148 25.0302Z" fill="#F79E1B"/>
</g>
</svg>
