<svg width="25" height="25" viewBox="0 0 25 25" fill="none" xmlns="http://www.w3.org/2000/svg">
<g id="Outlined/Progressing">
<g id="Union">
<path d="M12.5 2.34375C12.0685 2.34375 11.7188 2.69353 11.7188 3.125C11.7188 3.55647 12.0685 3.90625 12.5 3.90625C14.7792 3.90625 16.9651 4.81166 18.5767 6.4233C20.1883 8.03494 21.0938 10.2208 21.0938 12.5C21.0938 14.7792 20.1883 16.9651 18.5767 18.5767C16.9651 20.1883 14.7792 21.0938 12.5 21.0938C12.0685 21.0938 11.7188 21.4435 11.7188 21.875C11.7188 22.3065 12.0685 22.6562 12.5 22.6562C15.1936 22.6562 17.7769 21.5862 19.6816 19.6816C21.5862 17.7769 22.6562 15.1936 22.6562 12.5C22.6562 9.80639 21.5862 7.22311 19.6816 5.31845C17.7769 3.41378 15.1936 2.34375 12.5 2.34375Z" fill="black"/>
<path d="M3.90625 12.4986C3.90632 12.0671 3.5566 11.7173 3.12513 11.7172C2.69365 11.7172 2.34382 12.0669 2.34375 12.4984C2.34342 14.5829 2.98451 16.6171 4.18002 18.3247C5.37552 20.0324 7.06753 21.3308 9.02636 22.0438C9.43181 22.1913 9.88012 21.9823 10.0277 21.5768C10.1753 21.1714 9.96622 20.7231 9.56076 20.5755C7.9033 19.9722 6.4716 18.8735 5.46002 17.4286C4.44843 15.9837 3.90597 14.2625 3.90625 12.4986Z" fill="black"/>
<path d="M6.44841 5.29728C6.75244 5.60344 6.75071 6.09809 6.44455 6.40213C5.54694 7.2935 4.85718 8.37204 4.42452 9.56076C4.27695 9.96621 3.82863 10.1753 3.42318 10.0277C3.01773 9.88012 2.80868 9.43181 2.95625 9.02636C3.46758 7.6215 4.28275 6.34686 5.34356 5.29342C5.64972 4.98939 6.14438 4.99112 6.44841 5.29728Z" fill="black"/>
<path d="M9.56641 4.42247C9.97196 4.27518 10.1813 3.82701 10.034 3.42145C9.88675 3.0159 9.43858 2.80653 9.03303 2.95382C8.75307 3.0555 8.47773 3.16944 8.20779 3.29531C7.81674 3.47766 7.64756 3.94249 7.82991 4.33353C8.01226 4.72458 8.47708 4.89376 8.86813 4.71142C9.09654 4.60491 9.32952 4.5085 9.56641 4.42247Z" fill="black"/>
</g>
</g>
</svg>
