<svg xmlns="http://www.w3.org/2000/svg" width="21" height="21" viewBox="0 0 21 21" fill="none">
    <path d="M10.5 14.4062C10.9315 14.4062 11.2812 14.756 11.2812 15.1875V15.9688C11.2812 16.4002 10.9315 16.75 10.5 16.75C10.0685 16.75 9.71875 16.4002 9.71875 15.9688V15.1875C9.71875 14.756 10.0685 14.4062 10.5 14.4062Z" fill="black"/>
    <path d="M10.5 4.25C10.0242 4.25 9.59083 4.52722 9.42002 4.97129C9.19948 5.54466 8.9375 6.33048 8.9375 6.82812C8.93749 8.65806 9.33109 10.921 9.55955 12.0803C9.6479 12.5286 10.043 12.8438 10.5 12.8438C10.957 12.8438 11.3521 12.5286 11.4405 12.0803C11.6689 10.921 12.0625 8.65806 12.0625 6.82812C12.0625 6.33048 11.8005 5.54465 11.58 4.97128C11.4092 4.52722 10.9758 4.25 10.5 4.25Z" fill="black"/>
    <path fill-rule="evenodd" clip-rule="evenodd" d="M10.5 0.34375C4.89086 0.34375 0.34375 4.89086 0.34375 10.5C0.34375 16.1091 4.89086 20.6562 10.5 20.6562C16.1091 20.6562 20.6562 16.1091 20.6562 10.5C20.6562 4.89086 16.1091 0.34375 10.5 0.34375ZM1.90625 10.5C1.90625 5.7538 5.7538 1.90625 10.5 1.90625C15.2462 1.90625 19.0938 5.7538 19.0938 10.5C19.0938 15.2462 15.2462 19.0938 10.5 19.0938C5.7538 19.0938 1.90625 15.2462 1.90625 10.5Z" fill="black"/>
</svg>