<svg width="400" height="400" viewBox="0 0 400 400" fill="none" xmlns="http://www.w3.org/2000/svg">
<path d="M744.16 -434.192C747.448 -331.07 710.067 -189.835 646.034 -73.5565C614.02 -15.4214 575.357 36.4504 531.812 74.1943C488.266 111.938 439.863 135.533 388.351 137.176C336.84 138.819 287.031 118.356 241.169 83.4637C195.307 48.5713 153.418 -0.7315 117.765 -56.7085C46.4527 -168.671 0.147121 -307.237 -3.14171 -410.358C-6.42924 -513.439 32.7976 -595.828 98.625 -653.279C164.462 -710.738 256.938 -743.275 360.166 -746.568C463.394 -749.86 557.756 -723.281 627.121 -670.134C696.475 -616.995 740.872 -537.272 744.16 -434.192Z" fill="#FF9408" stroke="#FF9408"/>
<path d="M335.073 233.169C341.424 234.887 354.9 252.596 354.9 252.596L325.581 256.733L322.187 247.344C322.187 247.344 315.494 261.643 311.104 267.865C306.715 274.087 294.196 279.715 292.15 289.17C290.104 298.625 288.969 299.835 292.711 306.758C296.453 313.681 332.095 337.193 332.095 337.193C332.095 337.193 290.825 321.223 283.902 324.965C276.979 328.707 270.048 392.417 270.048 392.417L266.539 339.284C266.539 339.284 266.874 316.332 270.567 298.288C274.259 280.244 277.888 276.927 284.029 268.728C290.17 260.529 299.505 252.122 299.505 252.122C299.505 252.122 312.154 237.207 317.805 233.719C323.456 230.231 328.723 231.45 335.073 233.169Z" fill="#FF9408"/>
<ellipse cx="318.478" cy="224.734" rx="5.33249" ry="6.93223" transform="rotate(-1.82671 318.478 224.734)" fill="#FF9408"/>
<ellipse cx="270.301" cy="273.221" rx="5.33249" ry="6.93223" transform="rotate(-1.82671 270.301 273.221)" fill="#FF9408"/>
<path d="M332.847 313.907C330.255 295.104 325.057 257.027 324.997 255.151C324.997 255.151 335.005 251.097 359.3 246.694C383.594 242.291 438.5 244.168 438.5 244.168L424.84 307.666L413.144 359.15C413.144 359.15 402.398 370.163 377.987 370.942C353.577 371.72 341.579 356.844 341.579 356.844L332.847 313.907Z" fill="#FF9408" stroke="#FF9408"/>
<path d="M357.513 191.959C357.135 193.752 337.876 237.847 328.294 259.671" stroke="#FF9408" stroke-width="5"/>
<path d="M358.522 192.193L344.867 259.212" stroke="#FF9408" stroke-width="5"/>
<path d="M363.054 200.478C360.445 198.961 356.999 191.281 356.999 191.281L404.243 193.829C404.243 193.829 401.855 199.241 398.615 201.371C395.375 203.502 391.071 205.723 380.386 205.261C369.701 204.798 365.663 201.996 363.054 200.478Z" fill="#FF9408" stroke="#FF9408"/>
<path d="M269.528 101.772L358.119 192.953" stroke="#FF9408" stroke-width="5"/>
<path d="M300.267 85.3195L358.889 193.675" stroke="#FF9408" stroke-width="5"/>
<path d="M320.297 84.3607L360.481 193.411" stroke="#FF9408" stroke-width="5"/>
<path d="M402.348 194.637C403.501 193.319 441.509 144.482 460.369 120.227" stroke="#FF9408" stroke-width="5"/>
<path d="M402.369 195.276L445.501 92.3184" stroke="#FF9408" stroke-width="5"/>
<path d="M399.212 196.657L421.016 100.782" stroke="#FF9408" stroke-width="5"/>
<path d="M370.46 188.428C370.46 188.428 371.934 194.381 375.077 196.528C378.22 198.675 380.871 198.187 383.72 196.528C386.568 194.869 387.354 186.184 387.55 184.72C387.747 183.256 390.497 169.595 390.497 169.595L384.702 175.059L382.639 157.104L379.595 164.813L369.871 148.907L373.505 179.939L364.764 168.814L370.46 188.428Z" fill="#FF9408"/>
</svg>
