<svg width="400" height="383" viewBox="0 0 400 383" fill="none" xmlns="http://www.w3.org/2000/svg">
<path d="M730.72 -434.208C737.305 -227.749 581.066 131.086 374.428 137.676C167.791 144.266 -10.996 -203.884 -17.5805 -410.342C-24.1651 -616.801 139.574 -740.477 346.211 -747.067C552.849 -753.657 724.136 -640.666 730.72 -434.208Z" fill="#00A7FF"/>
<path d="M318.908 313.908C316.316 295.104 311.118 257.027 311.058 255.151C311.058 255.151 321.066 251.097 345.361 246.694C369.655 242.291 424.561 244.168 424.561 244.168L410.901 307.666L399.205 359.15C399.205 359.15 388.459 370.163 364.048 370.942C339.638 371.72 327.639 356.844 327.639 356.844L318.908 313.908Z" fill="#00A7FF"/>
<path d="M343.574 191.959C343.196 193.752 323.937 237.847 314.355 259.671" stroke="#00A7FF" stroke-width="5"/>
<path d="M344.583 192.193L330.928 259.212" stroke="#00A7FF" stroke-width="5"/>
<path d="M389.517 194.517L422.529 245.761" stroke="#00A7FF" stroke-width="5"/>
<path d="M388.623 194.63L410.176 248.148" stroke="#00A7FF" stroke-width="5"/>
<path d="M349.115 200.478C346.506 198.961 343.06 191.281 343.06 191.281L390.304 193.829C390.304 193.829 387.916 199.241 384.676 201.372C381.436 203.502 377.132 205.723 366.447 205.261C355.762 204.798 351.724 201.996 349.115 200.478Z" fill="#00A7FF"/>
<path d="M255.589 101.772L344.18 192.953" stroke="#00A7FF" stroke-width="5"/>
<path d="M286.328 85.3196L344.95 193.675" stroke="#00A7FF" stroke-width="5"/>
<path d="M306.358 84.3607L346.542 193.411" stroke="#00A7FF" stroke-width="5"/>
<path d="M388.409 194.637C389.562 193.319 427.571 144.482 446.431 120.228" stroke="#00A7FF" stroke-width="5"/>
<path d="M388.43 195.276L431.562 92.3185" stroke="#00A7FF" stroke-width="5"/>
<path d="M385.273 196.657L407.077 100.782" stroke="#00A7FF" stroke-width="5"/>
<path d="M323.227 216.055C321.217 206.807 322.423 187.909 322.423 187.909C322.423 187.909 315.186 205.601 313.175 218.065C311.165 230.53 330.465 250.232 330.465 250.232L362.632 247.417L371.88 231.334L377.509 247.417L403.242 244.603C403.242 244.603 410.882 230.53 415.305 216.457C419.728 202.384 419.728 185.094 419.728 185.094C419.728 185.094 407.665 215.653 405.655 219.674C403.644 223.694 396.407 227.313 391.984 228.519C387.561 229.726 380.725 228.117 377.509 221.684C374.292 215.251 378.313 191.93 378.313 191.93L367.055 220.88C367.055 220.88 360.178 228.922 348.518 230.53C336.858 232.138 325.238 225.303 323.227 216.055Z" fill="#00A7FF"/>
<ellipse cx="388.286" cy="211.895" rx="5.33249" ry="6.93223" transform="rotate(-1.82671 388.286 211.895)" fill="#00A7FF"/>
<ellipse cx="5.33249" cy="6.93223" rx="5.33249" ry="6.93223" transform="matrix(-0.999492 -0.0318766 -0.0318766 0.999492 354.688 206.343)" fill="#00A7FF"/>
<path d="M358.934 186.82C358.934 186.82 360.407 192.773 363.55 194.92C366.693 197.067 369.345 196.579 372.193 194.92C375.042 193.261 375.827 184.576 376.024 183.112C376.22 181.648 378.97 167.986 378.97 167.986L373.176 173.451L371.113 155.496L368.068 163.205L358.344 147.298L361.979 178.33L353.237 167.206L358.934 186.82Z" fill="#00A7FF"/>
</svg>
