<svg width="24" height="25" viewBox="0 0 24 25" xmlns="http://www.w3.org/2000/svg">
    <path id="union-1" fill-rule="evenodd" clip-rule="evenodd" fill="white" d="M12 4.5C7.58172 4.5 4 8.08172 4 12.5C4 14.5991 4.80806 16.5099 6.13199 17.9377C6.18198 17.7724 6.24846 17.6099 6.33518 17.4549C6.62917 16.9292 7.00004 16.4432 7.44009 16.0134C7.88171 15.582 8.37995 15.2201 8.91734 14.9341C8.09887 14.1506 7.58716 13.0557 7.58716 11.8333C7.58716 9.41801 9.58521 7.5 12 7.5C14.4148 7.5 16.4128 9.41801 16.4128 11.8333C16.4128 13.0557 15.9011 14.1506 15.0827 14.9341C15.6201 15.2201 16.1183 15.582 16.5599 16.0134C17 16.4432 17.3708 16.9292 17.6648 17.4549C17.7515 17.6099 17.818 17.7724 17.868 17.9377C19.1919 16.5099 20 14.5991 20 12.5C20 8.08172 16.4183 4.5 12 4.5ZM15.9411 19.4637C15.9799 19.2639 15.9994 19.0764 16 18.9103C16.0009 18.6358 15.9507 18.4872 15.9193 18.4312C15.7187 18.0726 15.465 17.7397 15.1625 17.4442C14.3277 16.6288 13.1905 16.1667 12 16.1667C10.8095 16.1667 9.67234 16.6288 8.83754 17.4442C8.535 17.7396 8.28126 18.0726 8.0807 18.4312C8.04934 18.4872 7.99905 18.6358 8.00001 18.9103C8.0006 19.0764 8.02005 19.2639 8.05888 19.4637C9.22151 20.1233 10.5655 20.5 12 20.5C13.4345 20.5 14.7785 20.1233 15.9411 19.4637ZM12 14.1667C13.3549 14.1667 14.4128 13.0999 14.4128 11.8333C14.4128 10.5668 13.3549 9.5 12 9.5C10.6451 9.5 9.58716 10.5668 9.58716 11.8333C9.58716 13.0999 10.6451 14.1667 12 14.1667ZM2 12.5C2 6.97715 6.47715 2.5 12 2.5C17.5228 2.5 22 6.97715 22 12.5C22 16.0573 20.1419 19.1798 17.348 20.9512C15.8007 21.9321 13.9651 22.5 12 22.5C10.0349 22.5 8.19929 21.9321 6.65202 20.9512C3.85814 19.1798 2 16.0573 2 12.5Z"/>
</svg>
