<svg width="50" height="17" viewBox="0 0 50 17" fill="none" xmlns="http://www.w3.org/2000/svg">
<path d="M18.9843 0.665038L12.4382 16.2832H8.16741L4.94607 3.81919C4.7505 3.05148 4.58044 2.77024 3.98566 2.4468C3.01457 1.91998 1.41093 1.42571 0 1.11894L0.0958328 0.665038H6.97054C7.84683 0.665038 8.63459 1.24837 8.83355 2.25748L10.5348 11.2949L14.7395 0.664777L18.9843 0.665038ZM35.718 11.1843C35.7352 7.06214 30.0181 6.83506 30.0574 4.99366C30.0696 4.43325 30.6032 3.83742 31.7712 3.68533C32.3501 3.60955 33.9451 3.55174 35.7542 4.38429L36.4639 1.07233C35.4917 0.719464 34.241 0.379883 32.6847 0.379883C28.6913 0.379883 25.8809 2.50279 25.8572 5.54262C25.8314 7.79104 27.8631 9.04572 29.3939 9.79285C30.9686 10.558 31.497 11.0496 31.491 11.734C31.4798 12.7816 30.235 13.2441 29.0717 13.2624C27.041 13.2936 25.8626 12.7129 24.9233 12.2762L24.191 15.6978C25.135 16.1308 26.8775 16.5087 28.684 16.5277C32.9285 16.5277 35.705 14.4311 35.718 11.1843ZM46.2633 16.2834H50L46.7383 0.665038H43.2894C42.5138 0.665038 41.8597 1.1166 41.5701 1.81087L35.5074 16.2832H39.7498L40.592 13.9504H45.7755L46.2633 16.2834ZM41.7552 10.7496L43.8818 4.88559L45.1058 10.7496H41.7552ZM24.7569 0.665038L21.416 16.2832H17.3759L20.7181 0.665038H24.7569Z" fill="white"/>
</svg>
